<svg width="48" height="48" viewBox="0 0 48 48" fill="none" xmlns="http://www.w3.org/2000/svg">
  <path d="M27 10C17.6 10 10 16.1 10 23.5C10 27.4 12.1 30.9 15.4 33.4L14 38L19.3 35.3C21.5 36.2 24.2 37 27 37C36.4 37 44 30.9 44 23.5C44 16.1 36.4 10 27 10Z" fill="white"/>
  <circle cx="21" cy="22" r="2" fill="#0A84FF"/>
  <circle cx="33" cy="22" r="2" fill="#0A84FF"/>
  <path d="M19 13C16.9 10.5 13.5 9 10 9C3.9 9 -1 13.1 -1 18C-1 20.5.3 22.8 2.5 24.5L1.6 27.6L5.2 25.8C6.7 26.4 8.3 27 10 27" stroke="white" stroke-width="3" stroke-linecap="round" stroke-linejoin="round"/>
</svg>
